<?xml version="1.0" encoding="utf-8"?>
<!-- Generator: Adobe Illustrator 22.1.0, SVG Export Plug-In . SVG Version: 6.00 Build 0)  -->
<svg version="1.1" id="Capa_1" xmlns="http://www.w3.org/2000/svg" xmlns:xlink="http://www.w3.org/1999/xlink" x="0px" y="0px"
	 viewBox="0 0 490.7 490.7" style="enable-background:new 0 0 490.7 490.7;" xml:space="preserve">
<style type="text/css">
	.st0{fill:#008489;}
</style>
<g>
	<path class="st0" d="M74.7,362.7c-5.9,0-10.7-4.8-10.7-10.7V138.7c0-5.9,4.8-10.7,10.7-10.7s10.7,4.8,10.7,10.7V352
		C85.3,357.9,80.6,362.7,74.7,362.7z"/>
	<path class="st0" d="M117.3,320c-5.9,0-10.7-4.8-10.7-10.7V138.7c0-5.9,4.8-10.7,10.7-10.7s10.7,4.8,10.7,10.7v170.7
		C128,315.2,123.2,320,117.3,320z"/>
	<path class="st0" d="M160,320c-5.9,0-10.7-4.8-10.7-10.7V138.7c0-5.9,4.8-10.7,10.7-10.7s10.7,4.8,10.7,10.7v170.7
		C170.7,315.2,165.9,320,160,320z"/>
	<path class="st0" d="M202.7,320c-5.9,0-10.7-4.8-10.7-10.7V138.7c0-5.9,4.8-10.7,10.7-10.7s10.7,4.8,10.7,10.7v170.7
		C213.3,315.2,208.6,320,202.7,320z"/>
	<path class="st0" d="M245.3,362.7c-5.9,0-10.7-4.8-10.7-10.7V138.7c0-5.9,4.8-10.7,10.7-10.7c5.9,0,10.7,4.8,10.7,10.7V352
		C256,357.9,251.2,362.7,245.3,362.7z"/>
	<path class="st0" d="M288,320c-5.9,0-10.7-4.8-10.7-10.7V138.7c0-5.9,4.8-10.7,10.7-10.7s10.7,4.8,10.7,10.7v170.7
		C298.7,315.2,293.9,320,288,320z"/>
	<path class="st0" d="M330.7,320c-5.9,0-10.7-4.8-10.7-10.7V138.7c0-5.9,4.8-10.7,10.7-10.7s10.7,4.8,10.7,10.7v170.7
		C341.3,315.2,336.6,320,330.7,320z"/>
	<path class="st0" d="M373.3,320c-5.9,0-10.7-4.8-10.7-10.7V138.7c0-5.9,4.8-10.7,10.7-10.7s10.7,4.8,10.7,10.7v170.7
		C384,315.2,379.2,320,373.3,320z"/>
	<path class="st0" d="M416,362.7c-5.9,0-10.7-4.8-10.7-10.7V138.7c0-5.9,4.8-10.7,10.7-10.7s10.7,4.8,10.7,10.7V352
		C426.7,357.9,421.9,362.7,416,362.7z"/>
	<path class="st0" d="M117.3,362.7c-1.4,0-2.8-0.2-4.1-0.9c-1.3-0.4-2.5-1.3-3.4-2.3c-4.1-3.9-4.3-10.4-0.4-14.6
		c0.1-0.1,0.2-0.2,0.4-0.4c0.9-1.1,2.1-1.9,3.4-2.3c4-1.6,8.5-0.7,11.5,2.3c4.1,4.2,4.1,11-0.1,15.1
		C122.7,361.5,120.1,362.6,117.3,362.7z"/>
	<path class="st0" d="M160,362.7c-1.4,0-2.8-0.2-4.1-0.9c-1.3-0.4-2.5-1.3-3.4-2.3c-4.1-3.9-4.3-10.4-0.4-14.6
		c0.1-0.1,0.2-0.2,0.4-0.4c0.9-1.1,2.1-1.9,3.4-2.3c4-1.7,8.5-0.7,11.5,2.3c1.1,0.9,1.9,2.1,2.3,3.4c1.1,2.6,1.1,5.5,0,8.1
		c-0.4,1.3-1.3,2.5-2.3,3.4C165.5,361.5,162.8,362.7,160,362.7z"/>
	<path class="st0" d="M202.7,362.7c-1.4,0-2.8-0.2-4.1-0.9c-1.3-0.4-2.5-1.3-3.4-2.3c-4.1-3.9-4.3-10.4-0.4-14.6
		c0.1-0.1,0.2-0.2,0.4-0.4c0.9-1.1,2.1-1.9,3.4-2.3c4-1.7,8.5-0.7,11.5,2.3c1.1,0.9,1.9,2.1,2.3,3.4c1.1,2.6,1.1,5.5,0,8.1
		c-0.4,1.3-1.3,2.5-2.3,3.4C208.2,361.5,205.5,362.7,202.7,362.7z"/>
	<path class="st0" d="M288,362.7c-5.9-0.1-10.6-4.9-10.5-10.8c0-2.7,1.1-5.4,3-7.3c4.1-4.1,10.8-4.1,14.9,0c1.1,0.9,1.9,2.1,2.3,3.4
		c1.1,2.6,1.1,5.5,0,8.1c-0.4,1.3-1.3,2.5-2.3,3.4C293.5,361.5,290.8,362.7,288,362.7z"/>
	<path class="st0" d="M330.7,362.7c-5.9-0.1-10.6-4.9-10.5-10.8c0-2.7,1.1-5.4,3-7.3c4.1-4.1,10.8-4.1,14.9,0
		c4.1,4.2,4.1,11-0.1,15.1C336,361.5,333.4,362.6,330.7,362.7z"/>
	<path class="st0" d="M373.3,362.7c-2.8,0-5.5-1.1-7.5-3.2c-1.1-0.9-1.9-2.1-2.3-3.4c-1.1-2.6-1.1-5.5,0-8.1
		c0.4-1.3,1.3-2.5,2.3-3.4c4.1-4.1,10.8-4.1,14.9,0c4.1,4.2,4.1,11-0.1,15.1C378.7,361.5,376.1,362.6,373.3,362.7L373.3,362.7z"/>
</g>
<g>
	<path class="st0" d="M10.7,149.3c-5.9,0-10.7-4.8-10.7-10.7v-64C0,68.8,4.8,64,10.7,64h64c5.9,0,10.7,4.8,10.7,10.7
		s-4.8,10.7-10.7,10.7H21.3v53.3C21.3,144.6,16.6,149.3,10.7,149.3z"/>
	<path class="st0" d="M74.7,426.7h-64C4.8,426.7,0,421.9,0,416v-64c0-5.9,4.8-10.7,10.7-10.7s10.7,4.8,10.7,10.7v53.3h53.3
		c5.9,0,10.7,4.8,10.7,10.7S80.6,426.7,74.7,426.7z"/>
	<path class="st0" d="M480,149.3c-5.9,0-10.7-4.8-10.7-10.7V85.3H416c-5.9,0-10.7-4.8-10.7-10.7S410.1,64,416,64h64
		c5.9,0,10.7,4.8,10.7,10.7v64C490.7,144.6,485.9,149.3,480,149.3z"/>
	<path class="st0" d="M480,426.7h-64c-5.9,0-10.7-4.8-10.7-10.7s4.8-10.7,10.7-10.7h53.3V352c0-5.9,4.8-10.7,10.7-10.7
		s10.7,4.8,10.7,10.7v64C490.7,421.9,485.9,426.7,480,426.7z"/>
</g>
<path class="st0" d="M74.7,362.7c-5.9,0-10.7-4.8-10.7-10.7V138.7c0-5.9,4.8-10.7,10.7-10.7s10.7,4.8,10.7,10.7V352
	C85.3,357.9,80.6,362.7,74.7,362.7z"/>
<path class="st0" d="M117.3,320c-5.9,0-10.7-4.8-10.7-10.7V138.7c0-5.9,4.8-10.7,10.7-10.7s10.7,4.8,10.7,10.7v170.7
	C128,315.2,123.2,320,117.3,320z"/>
<path class="st0" d="M160,320c-5.9,0-10.7-4.8-10.7-10.7V138.7c0-5.9,4.8-10.7,10.7-10.7s10.7,4.8,10.7,10.7v170.7
	C170.7,315.2,165.9,320,160,320z"/>
<path class="st0" d="M202.7,320c-5.9,0-10.7-4.8-10.7-10.7V138.7c0-5.9,4.8-10.7,10.7-10.7s10.7,4.8,10.7,10.7v170.7
	C213.3,315.2,208.6,320,202.7,320z"/>
<path class="st0" d="M245.3,362.7c-5.9,0-10.7-4.8-10.7-10.7V138.7c0-5.9,4.8-10.7,10.7-10.7c5.9,0,10.7,4.8,10.7,10.7V352
	C256,357.9,251.2,362.7,245.3,362.7z"/>
<path class="st0" d="M288,320c-5.9,0-10.7-4.8-10.7-10.7V138.7c0-5.9,4.8-10.7,10.7-10.7s10.7,4.8,10.7,10.7v170.7
	C298.7,315.2,293.9,320,288,320z"/>
<path class="st0" d="M330.7,320c-5.9,0-10.7-4.8-10.7-10.7V138.7c0-5.9,4.8-10.7,10.7-10.7s10.7,4.8,10.7,10.7v170.7
	C341.3,315.2,336.6,320,330.7,320z"/>
<path class="st0" d="M373.3,320c-5.9,0-10.7-4.8-10.7-10.7V138.7c0-5.9,4.8-10.7,10.7-10.7s10.7,4.8,10.7,10.7v170.7
	C384,315.2,379.2,320,373.3,320z"/>
<path class="st0" d="M416,362.7c-5.9,0-10.7-4.8-10.7-10.7V138.7c0-5.9,4.8-10.7,10.7-10.7s10.7,4.8,10.7,10.7V352
	C426.7,357.9,421.9,362.7,416,362.7z"/>
<path class="st0" d="M117.3,362.7c-1.4,0-2.8-0.2-4.1-0.9c-1.3-0.5-2.5-1.3-3.4-2.3c-4.1-3.9-4.3-10.5-0.3-14.6
	c0.1-0.1,0.2-0.2,0.3-0.3c0.9-1.1,2.1-1.9,3.4-2.3c2.6-1.1,5.5-1.1,8.1,0c1.3,0.4,2.5,1.3,3.4,2.3c4.1,4.2,4.1,11-0.1,15.1
	C122.7,361.5,120.1,362.6,117.3,362.7z"/>
<path class="st0" d="M160,362.7c-5.9-0.1-10.6-4.9-10.5-10.8c0-2.7,1.1-5.4,3-7.3c3-3.1,7.6-4,11.5-2.3c1.3,0.4,2.5,1.3,3.4,2.3
	c4.1,4.2,4.1,11-0.1,15.1C165.3,361.5,162.7,362.6,160,362.7z"/>
<path class="st0" d="M202.7,362.7c-5.9-0.1-10.6-4.9-10.5-10.8c0-2.7,1.1-5.4,3-7.3c0.9-1.1,2.1-1.9,3.4-2.3c4-1.6,8.5-0.7,11.5,2.3
	c4.1,4.2,4.1,11-0.1,15.1C208,361.5,205.4,362.6,202.7,362.7L202.7,362.7L202.7,362.7z"/>
<path class="st0" d="M288,362.7c-1.4,0-2.8-0.3-4.1-0.9c-1.3-0.5-2.5-1.3-3.4-2.3c-4.1-3.9-4.3-10.5-0.3-14.6
	c0.1-0.1,0.2-0.2,0.3-0.3c0.9-1.1,2.1-1.9,3.4-2.3c2.6-1.1,5.5-1.1,8.1,0c1.3,0.4,2.5,1.3,3.4,2.3c4.1,4.2,4.1,11-0.1,15.1
	C293.4,361.5,290.7,362.6,288,362.7L288,362.7z"/>
<path class="st0" d="M330.7,362.7c-1.4,0-2.8-0.3-4.1-0.9c-1.3-0.5-2.5-1.3-3.4-2.3c-4.1-3.9-4.3-10.5-0.3-14.6
	c0.1-0.1,0.2-0.2,0.3-0.3c4.1-4.1,10.8-4.1,14.9,0c4.1,3.9,4.3,10.4,0.4,14.5c-0.1,0.1-0.3,0.3-0.4,0.4c-0.9,1.1-2.1,1.9-3.4,2.3
	C333.5,362.4,332.1,362.7,330.7,362.7z"/>
<path class="st0" d="M373.3,362.7c-1.4,0-2.8-0.3-4.1-0.9c-1.3-0.5-2.5-1.3-3.4-2.3c-2.1-1.9-3.2-4.6-3.2-7.5
	c-0.1-1.4,0.2-2.8,0.9-4.1c0.4-1.3,1.2-2.5,2.3-3.4c0.9-1.1,2.1-1.9,3.4-2.3c4-1.6,8.5-0.7,11.5,2.3c1.1,0.9,1.9,2.1,2.3,3.4
	c0.6,1.3,0.9,2.7,0.9,4.1C383.8,357.8,379.1,362.5,373.3,362.7L373.3,362.7z"/>
<path class="st0" d="M10.7,149.3c-5.9,0-10.7-4.8-10.7-10.7v-64C0,68.8,4.8,64,10.7,64h64c5.9,0,10.7,4.8,10.7,10.7
	s-4.8,10.7-10.7,10.7H21.3v53.3C21.3,144.6,16.6,149.3,10.7,149.3z"/>
<path class="st0" d="M74.7,426.7h-64C4.8,426.7,0,421.9,0,416v-64c0-5.9,4.8-10.7,10.7-10.7s10.7,4.8,10.7,10.7v53.3h53.3
	c5.9,0,10.7,4.8,10.7,10.7S80.6,426.7,74.7,426.7z"/>
<path class="st0" d="M480,149.3c-5.9,0-10.7-4.8-10.7-10.7V85.3H416c-5.9,0-10.7-4.8-10.7-10.7S410.1,64,416,64h64
	c5.9,0,10.7,4.8,10.7,10.7v64C490.7,144.6,485.9,149.3,480,149.3z"/>
<path class="st0" d="M480,426.7h-64c-5.9,0-10.7-4.8-10.7-10.7s4.8-10.7,10.7-10.7h53.3V352c0-5.9,4.8-10.7,10.7-10.7
	s10.7,4.8,10.7,10.7v64C490.7,421.9,485.9,426.7,480,426.7z"/>
</svg>
