<svg id="Capa_1" data-name="Capa 1" xmlns="http://www.w3.org/2000/svg" viewBox="0 0 73.22 73.25"><title>logo</title><path d="M20.78,25.11,45.88,0l-10,2.73a57.63,57.63,0,0,0-26,14.63L2.16,25.11a13.18,13.18,0,0,0,18.62,0ZM12.4,19.87A53.14,53.14,0,0,1,33.84,7L18.28,22.6a9.65,9.65,0,0,1-10.64,2Z" style="fill:#eb642a"/><path d="M17.36,63.28,25.1,71a13.15,13.15,0,0,0,0-18.61L0,27.3l2.73,10A57.63,57.63,0,0,0,17.36,63.28Zm5.24-8.37a9.63,9.63,0,0,1,2,10.63l-4.77-4.76A53.06,53.06,0,0,1,7,39.34Z" style="fill:#1d2a38"/><path d="M61.75,44.29a13.13,13.13,0,0,0-9.31,3.86l-25.1,25.1,10-2.73a57.63,57.63,0,0,0,26-14.63l7.74-7.74a13.15,13.15,0,0,0-9.3-3.86Zm-.94,9.1A53.12,53.12,0,0,1,39.37,66.22L54.94,50.65a9.65,9.65,0,0,1,10.64-2Z" style="fill:#eb642a"/><path d="M48.11,20.85,73.22,46,70.49,36A57.65,57.65,0,0,0,55.85,10L48.11,2.23A13.17,13.17,0,0,0,48.11,20.85Zm.48-13.14,4.76,4.76A53.14,53.14,0,0,1,66.18,33.91L50.61,18.35A9.65,9.65,0,0,1,48.59,7.71Z" style="fill:#1d2a38"/></svg>